<?xml version="1.0" encoding="utf-8"?>
<!-- Generator: Adobe Illustrator 16.0.0, SVG Export Plug-In . SVG Version: 6.00 Build 0)  -->
<!DOCTYPE svg PUBLIC "-//W3C//DTD SVG 1.1//EN" "http://www.w3.org/Graphics/SVG/1.1/DTD/svg11.dtd">
<svg version="1.1" id="Layer_1" xmlns="http://www.w3.org/2000/svg" xmlns:xlink="http://www.w3.org/1999/xlink" x="0px" y="0px"
	 width="1079px" height="414.201px" viewBox="0 0 1079 414.201" enable-background="new 0 0 1079 414.201" xml:space="preserve">
<linearGradient id="SVGID_1_" gradientUnits="userSpaceOnUse" x1="600.0825" y1="438.2012" x2="1526.082" y2="438.2012">
	<stop  offset="0" style="stop-color:#50C4F1"/>
	<stop  offset="0.0238" style="stop-color:#48A4CE"/>
	<stop  offset="0.0584" style="stop-color:#3D82AD"/>
	<stop  offset="0.0939" style="stop-color:#346895"/>
	<stop  offset="0.1297" style="stop-color:#2C5584"/>
	<stop  offset="0.166" style="stop-color:#274778"/>
	<stop  offset="0.2028" style="stop-color:#233C70"/>
	<stop  offset="0.2407" style="stop-color:#22366B"/>
	<stop  offset="0.2809" style="stop-color:#22346A"/>
	<stop  offset="0.6685" style="stop-color:#F3903F"/>
	<stop  offset="0.8876" style="stop-color:#234C8F"/>
	<stop  offset="1" style="stop-color:#21647E"/>
</linearGradient>
<polyline fill="url(#SVGID_1_)" points="1526.082,-59.524 616.288,968.336 600.083,-91.934 "/>
<linearGradient id="SVGID_2_" gradientUnits="userSpaceOnUse" x1="5.0825" y1="242.2012" x2="1084.082" y2="242.2012">
	<stop  offset="0" style="stop-color:#50C4F1"/>
	<stop  offset="0.0238" style="stop-color:#48A4CE"/>
	<stop  offset="0.0584" style="stop-color:#3D82AD"/>
	<stop  offset="0.0939" style="stop-color:#346895"/>
	<stop  offset="0.1297" style="stop-color:#2C5584"/>
	<stop  offset="0.166" style="stop-color:#274778"/>
	<stop  offset="0.2028" style="stop-color:#233C70"/>
	<stop  offset="0.2407" style="stop-color:#22366B"/>
	<stop  offset="0.2809" style="stop-color:#22346A"/>
	<stop  offset="0.6685" style="stop-color:#F3903F"/>
	<stop  offset="0.8876" style="stop-color:#234C8F"/>
	<stop  offset="1" style="stop-color:#21647E"/>
</linearGradient>
<rect x="5.083" y="-1.799" fill="url(#SVGID_2_)" width="1079" height="488"/>
<linearGradient id="SVGID_3_" gradientUnits="userSpaceOnUse" x1="469.0825" y1="373.2012" x2="1395.082" y2="373.2012">
	<stop  offset="0" style="stop-color:#50C4F1"/>
	<stop  offset="0.0238" style="stop-color:#48A4CE"/>
	<stop  offset="0.0584" style="stop-color:#3D82AD"/>
	<stop  offset="0.0939" style="stop-color:#346895"/>
	<stop  offset="0.1297" style="stop-color:#2C5584"/>
	<stop  offset="0.166" style="stop-color:#274778"/>
	<stop  offset="0.2028" style="stop-color:#233C70"/>
	<stop  offset="0.2407" style="stop-color:#22366B"/>
	<stop  offset="0.2809" style="stop-color:#22346A"/>
	<stop  offset="0.6685" style="stop-color:#F3903F"/>
	<stop  offset="0.8876" style="stop-color:#234C8F"/>
	<stop  offset="1" style="stop-color:#21647E"/>
</linearGradient>
<polyline fill="url(#SVGID_3_)" points="1395.082,-124.524 485.288,903.336 469.083,-156.934 "/>
<linearGradient id="SVGID_4_" gradientUnits="userSpaceOnUse" x1="1143.6904" y1="386.6797" x2="569.6906" y2="-360.3204">
	<stop  offset="0" style="stop-color:#50C4F1"/>
	<stop  offset="0.0238" style="stop-color:#48A4CE"/>
	<stop  offset="0.0584" style="stop-color:#3D82AD"/>
	<stop  offset="0.0939" style="stop-color:#346895"/>
	<stop  offset="0.1297" style="stop-color:#2C5584"/>
	<stop  offset="0.166" style="stop-color:#274778"/>
	<stop  offset="0.2028" style="stop-color:#233C70"/>
	<stop  offset="0.2407" style="stop-color:#22366B"/>
	<stop  offset="0.2809" style="stop-color:#22346A"/>
	<stop  offset="0.6685" style="stop-color:#F3903F"/>
	<stop  offset="0.8876" style="stop-color:#234C8F"/>
	<stop  offset="1" style="stop-color:#21647E"/>
</linearGradient>
<polyline fill="url(#SVGID_4_)" points="440.321,-50.184 830.67,501.789 1140.525,480.789 1222.15,-33.685 705.908,-223.299 "/>
<linearGradient id="SVGID_5_" gradientUnits="userSpaceOnUse" x1="1024.6807" y1="869.2041" x2="-156.3179" y2="44.2047">
	<stop  offset="0" style="stop-color:#50C4F1"/>
	<stop  offset="0.0238" style="stop-color:#48A4CE"/>
	<stop  offset="0.0584" style="stop-color:#3D82AD"/>
	<stop  offset="0.0939" style="stop-color:#346895"/>
	<stop  offset="0.1297" style="stop-color:#2C5584"/>
	<stop  offset="0.166" style="stop-color:#274778"/>
	<stop  offset="0.2028" style="stop-color:#233C70"/>
	<stop  offset="0.2407" style="stop-color:#22366B"/>
	<stop  offset="0.2809" style="stop-color:#22346A"/>
	<stop  offset="0.6685" style="stop-color:#F3903F"/>
	<stop  offset="0.8876" style="stop-color:#234C8F"/>
	<stop  offset="1" style="stop-color:#21647E"/>
</linearGradient>
<polyline fill="url(#SVGID_5_)" points="1035.156,349.944 -318.68,576.543 335.757,-257.81 "/>
<linearGradient id="SVGID_6_" gradientUnits="userSpaceOnUse" x1="136.7305" y1="307.5166" x2="1062.7305" y2="307.5166" gradientTransform="matrix(0.8738 -0.4863 0.4863 0.8738 -48.0125 245.0106)">
	<stop  offset="0" style="stop-color:#50C4F1"/>
	<stop  offset="0.0238" style="stop-color:#48A4CE"/>
	<stop  offset="0.0584" style="stop-color:#3D82AD"/>
	<stop  offset="0.0939" style="stop-color:#346895"/>
	<stop  offset="0.1297" style="stop-color:#2C5584"/>
	<stop  offset="0.166" style="stop-color:#274778"/>
	<stop  offset="0.2028" style="stop-color:#233C70"/>
	<stop  offset="0.2407" style="stop-color:#22366B"/>
	<stop  offset="0.2809" style="stop-color:#22346A"/>
	<stop  offset="0.6685" style="stop-color:#F3903F"/>
	<stop  offset="0.8876" style="stop-color:#234C8F"/>
	<stop  offset="1" style="stop-color:#21647E"/>
</linearGradient>
<polyline fill="url(#SVGID_6_)" points="788.074,-438.021 492.988,902.557 -36.806,-16.004 "/>
<text transform="matrix(1 0 0 1 502.0825 905.627)" font-family="'OpenSans-Light'" font-size="62.4624" letter-spacing="31">BRANDON</text>
<linearGradient id="SVGID_7_" gradientUnits="userSpaceOnUse" x1="1135.0146" y1="295.7363" x2="1477.8098" y2="525.576" gradientTransform="matrix(-0.8469 -0.5317 0.5317 -0.8469 1560.4563 1182.5439)">
	<stop  offset="0" style="stop-color:#50C4F1"/>
	<stop  offset="0.0238" style="stop-color:#48A4CE"/>
	<stop  offset="0.0584" style="stop-color:#3D82AD"/>
	<stop  offset="0.0939" style="stop-color:#346895"/>
	<stop  offset="0.1297" style="stop-color:#2C5584"/>
	<stop  offset="0.166" style="stop-color:#274778"/>
	<stop  offset="0.2028" style="stop-color:#233C70"/>
	<stop  offset="0.2407" style="stop-color:#22366B"/>
	<stop  offset="0.2809" style="stop-color:#22346A"/>
	<stop  offset="0.6685" style="stop-color:#F3903F"/>
	<stop  offset="0.8876" style="stop-color:#234C8F"/>
	<stop  offset="1" style="stop-color:#21647E"/>
</linearGradient>
<polyline opacity="0.5" fill="url(#SVGID_7_)" points="694.081,347.466 788.074,240.631 678.85,192.93 "/>
<linearGradient id="SVGID_8_" gradientUnits="userSpaceOnUse" x1="1372.5742" y1="214.6318" x2="1721.5697" y2="448.6288" gradientTransform="matrix(0.472 -0.8816 -0.8816 -0.472 -88.0573 1607.5696)">
	<stop  offset="0" style="stop-color:#50C4F1"/>
	<stop  offset="0.0238" style="stop-color:#48A4CE"/>
	<stop  offset="0.0584" style="stop-color:#3D82AD"/>
	<stop  offset="0.0939" style="stop-color:#346895"/>
	<stop  offset="0.1297" style="stop-color:#2C5584"/>
	<stop  offset="0.166" style="stop-color:#274778"/>
	<stop  offset="0.2028" style="stop-color:#233C70"/>
	<stop  offset="0.2407" style="stop-color:#22366B"/>
	<stop  offset="0.2809" style="stop-color:#22346A"/>
	<stop  offset="0.6685" style="stop-color:#F3903F"/>
	<stop  offset="0.8876" style="stop-color:#234C8F"/>
	<stop  offset="1" style="stop-color:#21647E"/>
</linearGradient>
<polyline opacity="0.5" fill="url(#SVGID_8_)" points="435.238,281.437 298.214,234.405 370.72,137.107 "/>
<text transform="matrix(1 0 0 1 502.0825 966.627)" font-family="'OpenSans-Semibold'" font-size="62.4624" letter-spacing="31">REDMANN</text>
<g>
	<path fill="#FFFFFF" d="M-182.043,632.941h12.23c5.51,0,9.556,0.936,12.139,2.806c2.582,1.87,3.874,4.696,3.874,8.479
		c0,2.583-0.788,4.732-2.364,6.45c-1.576,1.719-3.878,2.822-6.908,3.31v0.183c3.558,0.529,6.176,1.652,7.854,3.371
		c1.678,1.718,2.517,4.112,2.517,7.182c0,4.107-1.363,7.27-4.087,9.486c-2.725,2.216-6.588,3.324-11.59,3.324h-13.664V632.941z
		 M-178.932,652.796h9.821c4.188,0,7.233-0.696,9.134-2.089c1.901-1.393,2.852-3.574,2.852-6.543c0-2.968-1.072-5.123-3.217-6.465
		c-2.146-1.342-5.343-2.014-9.592-2.014h-8.997V652.796z M-178.932,655.541v19.244h10.492c8.255,0,12.383-3.354,12.383-10.064
		c0-6.119-4.352-9.18-13.054-9.18H-178.932z"/>
	<path fill="#FFFFFF" d="M-108.54,658.103v19.429h-3.111v-44.59h10.614c5.53,0,9.617,1.021,12.261,3.064
		c2.643,2.043,3.965,5.119,3.965,9.227c0,2.988-0.789,5.51-2.364,7.563c-1.576,2.054-3.97,3.528-7.183,4.423l12.108,20.313h-3.721
		l-11.498-19.429H-108.54z M-108.54,655.419h8.509c3.761,0,6.679-0.839,8.753-2.517c2.074-1.678,3.111-4.152,3.111-7.426
		c0-3.396-1.017-5.866-3.05-7.412c-2.034-1.545-5.348-2.317-9.943-2.317h-7.381V655.419z"/>
	<path fill="#FFFFFF" d="M-21.831,661.793h-18.116l-6.222,15.738h-3.446l17.934-44.773h1.982l17.567,44.773h-3.507L-21.831,661.793z
		 M-38.819,658.987h15.951l-6.069-16.073c-0.509-1.26-1.119-3.009-1.83-5.246c-0.549,1.952-1.149,3.721-1.8,5.307L-38.819,658.987z"
		/>
	<path fill="#FFFFFF" d="M57.834,677.531h-3.142L28.28,637.943h-0.244c0.244,4.717,0.366,8.275,0.366,10.674v28.914h-2.989v-44.59
		h3.11l26.382,39.526h0.184c-0.184-3.659-0.274-7.137-0.274-10.431v-29.096h3.02V677.531z"/>
	<path fill="#FFFFFF" d="M135.545,654.809c0,7.482-1.962,13.141-5.886,16.973c-3.925,3.834-9.688,5.75-17.293,5.75h-10.675v-44.59
		h12.047c7.116,0,12.53,1.859,16.241,5.581C133.689,642.243,135.545,647.672,135.545,654.809z M132.16,654.931
		c0-6.384-1.622-11.188-4.865-14.411s-8.006-4.834-14.288-4.834h-8.205v39.1h7.381C125.501,674.785,132.16,668.168,132.16,654.931z"
		/>
	<path fill="#FFFFFF" d="M214.508,655.175c0,7.075-1.769,12.673-5.307,16.79s-8.418,6.176-14.64,6.176
		c-6.202,0-11.071-2.059-14.609-6.176s-5.307-9.734-5.307-16.852c0-7.096,1.784-12.682,5.353-16.759
		c3.568-4.076,8.443-6.115,14.624-6.115c6.222,0,11.092,2.049,14.609,6.146C212.749,642.482,214.508,648.079,214.508,655.175z
		 M178.03,655.175c0,6.385,1.424,11.32,4.271,14.808s6.934,5.23,12.261,5.23c5.367,0,9.47-1.729,12.307-5.186
		c2.836-3.455,4.254-8.406,4.254-14.853c0-6.425-1.418-11.351-4.254-14.776c-2.837-3.426-6.919-5.14-12.246-5.14
		c-5.307,0-9.398,1.729-12.275,5.185C179.469,643.9,178.03,648.811,178.03,655.175z"/>
	<path fill="#FFFFFF" d="M288.407,677.531h-3.141l-26.412-39.588h-0.244c0.244,4.717,0.366,8.275,0.366,10.674v28.914h-2.989v-44.59
		h3.11l26.382,39.526h0.184c-0.184-3.659-0.274-7.137-0.274-10.431v-29.096h3.019V677.531z"/>
</g>
<g>
	<path fill="#FFFFFF" d="M-175.087,730.51v16.996h-6.956v-42.549h12.02c5.49,0,9.555,1.029,12.194,3.086
		c2.638,2.057,3.958,5.16,3.958,9.313c0,5.297-2.756,9.07-8.265,11.32l12.019,18.83h-7.916l-10.187-16.996H-175.087z
		 M-175.087,724.748h4.832c3.239,0,5.587-0.602,7.042-1.805c1.456-1.203,2.183-2.988,2.183-5.355c0-2.404-0.786-4.133-2.357-5.18
		c-1.572-1.047-3.939-1.572-7.102-1.572h-4.598V724.748z"/>
	<path fill="#FFFFFF" d="M-90.077,747.506h-24.068v-42.549h24.068v5.879h-17.113v11.584h16.036v5.82h-16.036v13.357h17.113V747.506z
		"/>
	<path fill="#FFFFFF" d="M-16.476,725.824c0,7.023-1.95,12.395-5.85,16.109s-9.517,5.572-16.851,5.572H-51.08v-42.549h13.155
		c6.771,0,12.039,1.824,15.803,5.473C-18.358,714.076-16.476,719.209-16.476,725.824z M-23.81,726.057
		c0-10.186-4.764-15.279-14.29-15.279h-6.024v30.879h4.947C-28.932,741.656-23.81,736.457-23.81,726.057z"/>
	<path fill="#FFFFFF" d="M40.857,747.506l-12.34-35.535h-0.233c0.33,5.279,0.495,10.227,0.495,14.844v20.691h-6.315v-42.549h9.808
		l11.815,33.848h0.175l12.165-33.848h9.837v42.549H59.57v-21.041c0-2.115,0.054-4.869,0.16-8.266
		c0.106-3.395,0.199-5.451,0.277-6.17h-0.233l-12.775,35.477H40.857z"/>
	<path fill="#FFFFFF" d="M133.665,747.506l-4.248-11.816h-16.27l-4.16,11.816h-7.334l15.918-42.723h7.568l15.918,42.723H133.665z
		 M127.583,729.695l-3.986-11.584c-0.291-0.775-0.693-1.998-1.209-3.666c-0.514-1.668-0.867-2.891-1.063-3.668
		c-0.523,2.387-1.289,4.996-2.299,7.83l-3.84,11.088H127.583z"/>
	<path fill="#FFFFFF" d="M211.925,747.506h-8.529l-20.924-33.904h-0.232l0.146,1.891c0.27,3.609,0.406,6.908,0.406,9.896v22.117
		h-6.314v-42.549h8.439l20.865,33.73h0.176c-0.039-0.445-0.117-2.07-0.232-4.875c-0.117-2.803-0.174-4.99-0.174-6.563v-22.293h6.373
		V747.506z"/>
	<path fill="#FFFFFF" d="M288.407,747.506h-8.527l-20.926-33.904h-0.232l0.146,1.891c0.271,3.609,0.406,6.908,0.406,9.896v22.117
		h-6.314v-42.549h8.439l20.867,33.73h0.174c-0.039-0.445-0.115-2.07-0.232-4.875c-0.117-2.803-0.174-4.99-0.174-6.563v-22.293h6.373
		V747.506z"/>
</g>
<g>
	<linearGradient id="SVGID_9_" gradientUnits="userSpaceOnUse" x1="376.6821" y1="687.876" x2="-135.3179" y2="693.8761">
		<stop  offset="0" style="stop-color:#50C4F1"/>
		<stop  offset="0.0238" style="stop-color:#48A4CE"/>
		<stop  offset="0.0584" style="stop-color:#3D82AD"/>
		<stop  offset="0.0939" style="stop-color:#346895"/>
		<stop  offset="0.1297" style="stop-color:#2C5584"/>
		<stop  offset="0.166" style="stop-color:#274778"/>
		<stop  offset="0.2028" style="stop-color:#233C70"/>
		<stop  offset="0.2407" style="stop-color:#22366B"/>
		<stop  offset="0.2809" style="stop-color:#22346A"/>
		<stop  offset="0.6685" style="stop-color:#F3903F"/>
		<stop  offset="0.8876" style="stop-color:#234C8F"/>
		<stop  offset="1" style="stop-color:#21647E"/>
	</linearGradient>
	<rect x="-182.043" y="690.667" fill="url(#SVGID_9_)" width="470.45" height="2"/>
</g>
<linearGradient id="SVGID_10_" gradientUnits="userSpaceOnUse" x1="-136.9175" y1="137.0659" x2="263.0825" y2="137.0659">
	<stop  offset="0" style="stop-color:#50C4F1"/>
	<stop  offset="0.0238" style="stop-color:#48A4CE"/>
	<stop  offset="0.0584" style="stop-color:#3D82AD"/>
	<stop  offset="0.0939" style="stop-color:#346895"/>
	<stop  offset="0.1297" style="stop-color:#2C5584"/>
	<stop  offset="0.166" style="stop-color:#274778"/>
	<stop  offset="0.2028" style="stop-color:#233C70"/>
	<stop  offset="0.2407" style="stop-color:#22366B"/>
	<stop  offset="0.2809" style="stop-color:#22346A"/>
	<stop  offset="0.6685" style="stop-color:#F3903F"/>
	<stop  offset="0.8876" style="stop-color:#234C8F"/>
	<stop  offset="1" style="stop-color:#21647E"/>
</linearGradient>
<polyline fill="url(#SVGID_10_)" points="263.083,-77.934 -129.917,366.066 -136.917,-91.934 "/>
<rect x="-426" y="-286.728" fill="#5D5E5E" width="426" height="992"/>
<rect x="1079" y="-217.528" fill="#5D5E5E" width="426" height="992"/>
<rect x="-128.917" y="-501" fill="#5D5E5E" width="1269.443" height="501"/>
<linearGradient id="SVGID_11_" gradientUnits="userSpaceOnUse" x1="122.7441" y1="171.5137" x2="471.7441" y2="405.5137">
	<stop  offset="0" style="stop-color:#50C4F1"/>
	<stop  offset="0.0238" style="stop-color:#48A4CE"/>
	<stop  offset="0.0584" style="stop-color:#3D82AD"/>
	<stop  offset="0.0939" style="stop-color:#346895"/>
	<stop  offset="0.1297" style="stop-color:#2C5584"/>
	<stop  offset="0.166" style="stop-color:#274778"/>
	<stop  offset="0.2028" style="stop-color:#233C70"/>
	<stop  offset="0.2407" style="stop-color:#22366B"/>
	<stop  offset="0.2809" style="stop-color:#22346A"/>
	<stop  offset="0.6685" style="stop-color:#F3903F"/>
	<stop  offset="0.8876" style="stop-color:#234C8F"/>
	<stop  offset="1" style="stop-color:#21647E"/>
</linearGradient>
<polyline opacity="0.1" fill="url(#SVGID_11_)" points="166.289,121.43 143.083,264.43 263.083,246.43 "/>
<linearGradient id="SVGID_12_" gradientUnits="userSpaceOnUse" x1="879.6738" y1="118.147" x2="1228.6693" y2="352.1439" gradientTransform="matrix(-0.5536 0.8328 -0.8328 -0.5536 1574.6473 -614.3851)">
	<stop  offset="0" style="stop-color:#50C4F1"/>
	<stop  offset="0.0238" style="stop-color:#48A4CE"/>
	<stop  offset="0.0584" style="stop-color:#3D82AD"/>
	<stop  offset="0.0939" style="stop-color:#346895"/>
	<stop  offset="0.1297" style="stop-color:#2C5584"/>
	<stop  offset="0.166" style="stop-color:#274778"/>
	<stop  offset="0.2028" style="stop-color:#233C70"/>
	<stop  offset="0.2407" style="stop-color:#22366B"/>
	<stop  offset="0.2809" style="stop-color:#22346A"/>
	<stop  offset="0.6685" style="stop-color:#F3903F"/>
	<stop  offset="0.8876" style="stop-color:#234C8F"/>
	<stop  offset="1" style="stop-color:#21647E"/>
</linearGradient>
<polyline opacity="0.5" fill="url(#SVGID_12_)" points="1006.913,116.804 900.667,18.319 849.231,128.22 "/>
</svg>
