<?xml version="1.0" encoding="utf-8"?>
<!-- Generator: Adobe Illustrator 16.0.0, SVG Export Plug-In . SVG Version: 6.00 Build 0)  -->
<!DOCTYPE svg PUBLIC "-//W3C//DTD SVG 1.1//EN" "http://www.w3.org/Graphics/SVG/1.1/DTD/svg11.dtd">
<svg version="1.1" id="Layer_1" xmlns="http://www.w3.org/2000/svg" xmlns:xlink="http://www.w3.org/1999/xlink" x="0px" y="0px"
	 width="470.449px" height="117.172px" viewBox="0 0 470.449 117.172" enable-background="new 0 0 470.449 117.172"
	 xml:space="preserve">
<g>
	<path fill="#FFFFFF" d="M0,2.608h12.23c5.51,0,9.556,0.936,12.139,2.806c2.582,1.87,3.874,4.696,3.874,8.479
		c0,2.583-0.788,4.732-2.364,6.45c-1.576,1.719-3.878,2.822-6.908,3.31v0.183c3.558,0.529,6.176,1.652,7.854,3.371
		c1.678,1.718,2.517,4.112,2.517,7.182c0,4.107-1.363,7.27-4.087,9.486c-2.725,2.216-6.588,3.324-11.59,3.324H0V2.608z
		 M3.111,22.462h9.821c4.188,0,7.233-0.696,9.134-2.089c1.901-1.393,2.852-3.574,2.852-6.543c0-2.968-1.072-5.123-3.217-6.465
		c-2.146-1.342-5.343-2.014-9.592-2.014H3.111V22.462z M3.111,25.208v19.244h10.492c8.255,0,12.383-3.354,12.383-10.064
		c0-6.119-4.352-9.18-13.054-9.18H3.111z"/>
	<path fill="#FFFFFF" d="M73.503,27.769v19.429h-3.111V2.608h10.614c5.53,0,9.617,1.021,12.261,3.064
		c2.643,2.043,3.965,5.119,3.965,9.227c0,2.988-0.789,5.51-2.364,7.563c-1.576,2.054-3.97,3.528-7.183,4.423l12.108,20.313h-3.721
		L84.574,27.769H73.503z M73.503,25.085h8.509c3.761,0,6.679-0.839,8.753-2.517c2.074-1.678,3.111-4.152,3.111-7.426
		c0-3.396-1.017-5.866-3.05-7.412c-2.034-1.545-5.348-2.317-9.943-2.317h-7.381V25.085z"/>
	<path fill="#FFFFFF" d="M160.212,31.459h-18.116l-6.222,15.738h-3.446l17.934-44.773h1.982l17.567,44.773h-3.507L160.212,31.459z
		 M143.224,28.654h15.951l-6.069-16.073c-0.509-1.26-1.119-3.009-1.83-5.246c-0.549,1.952-1.149,3.721-1.8,5.307L143.224,28.654z"/>
	<path fill="#FFFFFF" d="M239.877,47.198h-3.142L210.323,7.61h-0.244c0.244,4.717,0.366,8.275,0.366,10.674v28.914h-2.989V2.608
		h3.11l26.382,39.526h0.184c-0.184-3.659-0.274-7.137-0.274-10.431V2.608h3.02V47.198z"/>
	<path fill="#FFFFFF" d="M317.588,24.475c0,7.482-1.962,13.141-5.886,16.973c-3.925,3.834-9.688,5.75-17.293,5.75h-10.675V2.608
		h12.047c7.116,0,12.53,1.859,16.241,5.581C315.732,11.91,317.588,17.338,317.588,24.475z M314.203,24.597
		c0-6.384-1.622-11.188-4.865-14.411s-8.006-4.834-14.288-4.834h-8.205v39.1h7.381C307.544,44.452,314.203,37.834,314.203,24.597z"
		/>
	<path fill="#FFFFFF" d="M396.551,24.841c0,7.075-1.769,12.673-5.307,16.79s-8.418,6.176-14.64,6.176
		c-6.202,0-11.071-2.059-14.609-6.176s-5.307-9.734-5.307-16.852c0-7.096,1.784-12.682,5.353-16.759
		c3.568-4.076,8.443-6.115,14.624-6.115c6.222,0,11.092,2.049,14.609,6.146C394.792,12.149,396.551,17.746,396.551,24.841z
		 M360.073,24.841c0,6.385,1.424,11.32,4.271,14.808s6.934,5.23,12.261,5.23c5.367,0,9.47-1.729,12.307-5.186
		c2.836-3.455,4.254-8.406,4.254-14.853c0-6.425-1.418-11.351-4.254-14.776c-2.837-3.426-6.919-5.14-12.246-5.14
		c-5.307,0-9.398,1.729-12.275,5.185C361.512,13.567,360.073,18.477,360.073,24.841z"/>
	<path fill="#FFFFFF" d="M470.449,47.198h-3.141L440.896,7.61h-0.244c0.244,4.717,0.366,8.275,0.366,10.674v28.914h-2.989V2.608
		h3.11l26.382,39.526h0.184c-0.184-3.659-0.274-7.137-0.274-10.431V2.608h3.019V47.198z"/>
</g>
<g>
	<path fill="#FFFFFF" d="M6.956,100.176v16.996H0V74.624h12.02c5.49,0,9.555,1.029,12.194,3.086c2.638,2.057,3.958,5.16,3.958,9.313
		c0,5.297-2.756,9.07-8.265,11.32l12.019,18.83H24.01l-10.187-16.996H6.956z M6.956,94.415h4.832c3.239,0,5.587-0.602,7.042-1.805
		c1.456-1.203,2.183-2.988,2.183-5.355c0-2.404-0.786-4.133-2.357-5.18c-1.572-1.047-3.939-1.572-7.102-1.572H6.956V94.415z"/>
	<path fill="#FFFFFF" d="M91.966,117.172H67.897V74.624h24.068v5.879H74.853v11.584h16.036v5.82H74.853v13.357h17.113V117.172z"/>
	<path fill="#FFFFFF" d="M165.567,95.491c0,7.023-1.95,12.395-5.85,16.109s-9.517,5.572-16.851,5.572h-11.903V74.624h13.155
		c6.771,0,12.039,1.824,15.803,5.473C163.685,83.743,165.567,88.875,165.567,95.491z M158.233,95.723
		c0-10.186-4.764-15.279-14.29-15.279h-6.024v30.879h4.947C153.111,111.323,158.233,106.124,158.233,95.723z"/>
	<path fill="#FFFFFF" d="M222.9,117.172l-12.34-35.535h-0.233c0.33,5.279,0.495,10.227,0.495,14.844v20.691h-6.315V74.624h9.808
		l11.815,33.848h0.175l12.166-33.848h9.837v42.549h-6.694V96.131c0-2.115,0.053-4.869,0.16-8.266
		c0.105-3.395,0.199-5.451,0.277-6.17h-0.234l-12.775,35.477H222.9z"/>
	<path fill="#FFFFFF" d="M315.708,117.172l-4.248-11.816h-16.27l-4.16,11.816h-7.334l15.918-42.723h7.568l15.918,42.723H315.708z
		 M309.626,99.362l-3.986-11.584c-0.291-0.775-0.693-1.998-1.209-3.666c-0.514-1.668-0.867-2.891-1.063-3.668
		c-0.523,2.387-1.289,4.996-2.299,7.83l-3.84,11.088H309.626z"/>
	<path fill="#FFFFFF" d="M393.968,117.172h-8.529l-20.924-33.904h-0.232l0.146,1.891c0.27,3.609,0.406,6.908,0.406,9.896v22.117
		h-6.314V74.624h8.439l20.865,33.73h0.176c-0.039-0.445-0.117-2.07-0.232-4.875c-0.117-2.803-0.174-4.99-0.174-6.563V74.624h6.373
		V117.172z"/>
	<path fill="#FFFFFF" d="M470.449,117.172h-8.526l-20.926-33.904h-0.232l0.146,1.891c0.271,3.609,0.406,6.908,0.406,9.896v22.117
		h-6.314V74.624h8.439l20.867,33.73h0.174c-0.039-0.445-0.115-2.07-0.232-4.875c-0.117-2.803-0.174-4.99-0.174-6.563V74.624h6.372
		V117.172z"/>
</g>
<g>
	<linearGradient id="SVGID_1_" gradientUnits="userSpaceOnUse" x1="558.7246" y1="57.542" x2="46.7246" y2="63.5421">
		<stop  offset="0" style="stop-color:#50C4F1"/>
		<stop  offset="0.0238" style="stop-color:#48A4CE"/>
		<stop  offset="0.0584" style="stop-color:#3D82AD"/>
		<stop  offset="0.0939" style="stop-color:#346895"/>
		<stop  offset="0.1297" style="stop-color:#2C5584"/>
		<stop  offset="0.166" style="stop-color:#274778"/>
		<stop  offset="0.2028" style="stop-color:#233C70"/>
		<stop  offset="0.2407" style="stop-color:#22366B"/>
		<stop  offset="0.2809" style="stop-color:#22346A"/>
		<stop  offset="0.6685" style="stop-color:#F3903F"/>
		<stop  offset="0.8876" style="stop-color:#234C8F"/>
		<stop  offset="1" style="stop-color:#21647E"/>
	</linearGradient>
	<rect y="60.333" fill="url(#SVGID_1_)" width="470.449" height="2"/>
</g>
</svg>
